<svg width="615" height="224" viewBox="0 0 615 224" fill="none" xmlns="http://www.w3.org/2000/svg">
<g clip-path="url(#clip0_14_409)">
<path d="M82.28 218.62L134.64 95.2C141.78 77.86 144.5 76.16 159.12 76.16V69.02H106.08V76.16C119.68 76.16 126.14 76.84 126.14 83.98C126.14 86.7 125.46 90.1 123.42 95.2L93.16 170.68L60.52 94.18C58.82 89.42 57.8 86.02 57.8 83.64C57.8 76.84 64.26 76.16 75.82 76.16V69.02H0V76.16C13.94 76.16 15.98 78.88 22.78 93.84L80.24 218.62H82.28ZM170.895 20.74C170.895 32.3 180.755 41.48 192.315 41.48C203.875 41.48 213.395 32.3 213.395 20.74C213.395 8.84001 203.875 0 192.315 0C180.755 0 170.895 8.84001 170.895 20.74ZM174.975 94.52V189.72C174.975 206.38 171.575 208.08 156.275 208.08V215.22H230.055V208.08C214.755 208.08 211.355 206.38 211.355 189.72V69.02H156.275V76.16C171.575 76.16 174.975 77.86 174.975 94.52ZM297.083 74.8C315.103 74.8 323.603 92.14 324.623 116.28H263.763C266.483 89.08 279.403 74.8 297.083 74.8ZM358.283 185.98L353.863 181.9C344.683 194.14 333.463 199.58 319.183 199.58C286.203 199.58 263.083 169.66 263.083 128.52C263.083 127.16 263.083 125.8 263.083 124.78H355.903C355.903 96.56 337.203 65.62 298.103 65.62C262.743 65.62 228.743 99.28 228.743 144.16C228.743 188.02 261.723 218.62 301.843 218.62C323.603 218.62 345.023 207.4 358.283 185.98Z" fill="white"/>
<path d="M405.129 67.9268V95.5772C409.339 87.0298 415.81 80.1301 424.539 74.8781C433.269 69.626 443.488 67 455.196 67C469.883 67 481.95 70.8103 491.399 78.4309C500.848 85.9485 505.572 97.7398 505.572 113.805V198.146C505.572 203.707 506.548 207.569 508.499 209.732C510.553 211.791 515.38 213.491 522.98 214.829V219H453.348V214.829C460.434 213.696 464.902 212.152 466.75 210.195C468.599 208.136 469.523 204.48 469.523 199.228V118.285C469.523 106.03 466.699 96.916 461.05 90.9431C455.504 84.9702 447.648 81.9837 437.48 81.9837C430.085 81.9837 423.666 83.5799 418.223 86.7724C412.78 89.8618 408.518 94.084 405.437 99.439V199.228C405.437 204.48 406.31 208.136 408.056 210.195C409.904 212.152 414.423 213.696 421.612 214.829V219H351.98V214.829C359.375 213.593 364.099 211.894 366.153 209.732C368.31 207.569 369.388 203.707 369.388 198.146V93.8781C369.388 89.5528 368.823 86.6179 367.694 85.0732C366.666 83.5285 364.048 81.9837 359.837 80.439L351.98 77.813V74.1057L405.129 67.9268Z" fill="white"/>
</g>
<defs>
<clipPath id="clip0_14_409">
<rect width="615" height="224" fill="white"/>
</clipPath>
</defs>
</svg>
